<svg width="24" height="25" viewBox="0 0 24 25" fill="none" xmlns="http://www.w3.org/2000/svg">
<g id="airline_seat_flat_angled" clip-path="url(#clip0_108_456)">
<path id="Vector" opacity="0.3" d="M14 17.14L10 15.69V17.5H14V17.14ZM6 9C6.15 9 6.3 8.97 6.44 8.9C6.93 8.66 7.14 8.06 6.9 7.56C6.71 7.15 6.31 7 6 7C5.85 7 5.7 7.03 5.56 7.1C5.24 7.26 5.11 7.52 5.06 7.66C5.01 7.81 4.94 8.1 5.1 8.43C5.3 8.85 5.69 9 6 9ZM19.16 11.52L12.47 9.11L11.77 11.02L20.36 14.13L20.37 14.11C20.56 13.6 20.54 13.06 20.31 12.58C20.08 12.08 19.68 11.71 19.16 11.52Z" fill="#242E6F"/>
<path id="Vector_2" d="M1.5 12.64L8 14.98V19.5H16V17.87L20.52 19.5L21.21 17.61L2.19 10.75L1.5 12.64ZM10 15.69L14 17.13V17.5H10V15.69ZM19.84 9.64L11.28 6.55L9.2 12.21L21.56 16.68L22.25 14.79C23.02 12.7 21.94 10.4 19.84 9.64ZM20.37 14.1L20.36 14.12L11.77 11.01L12.47 9.1L19.16 11.51C19.68 11.7 20.09 12.07 20.31 12.56C20.54 13.05 20.56 13.6 20.37 14.1ZM6 11C6.44 11 6.88 10.9 7.3 10.7C8.79 9.98 9.42 8.19 8.71 6.7C8.19 5.63 7.12 5 6 5C5.56 5 5.12 5.1 4.7 5.3C3.21 6.01 2.58 7.8 3.3 9.3C3.81 10.37 4.88 11 6 11ZM5.06 7.66C5.11 7.52 5.24 7.26 5.57 7.1C5.71 7.04 5.85 7 6 7C6.31 7 6.7 7.15 6.9 7.56C7.14 8.06 6.92 8.66 6.43 8.9C6.29 8.96 6.15 9 6 9C5.7 9 5.3 8.85 5.11 8.44C4.94 8.1 5.01 7.81 5.06 7.66Z" fill="#242E6F"/>
</g>
<defs>
<clipPath id="clip0_108_456">
<rect width="24" height="24" fill="white" transform="translate(0 0.5)"/>
</clipPath>
</defs>
</svg>
